<svg width="1440" height="339" viewBox="0 0 1440 339" fill="none" xmlns="http://www.w3.org/2000/svg">
<g filter="url(#filter0_d_1131_326)">
<path fill-rule="evenodd" clip-rule="evenodd" d="M-115 309.719L-48.9167 284.326C17.1667 258.933 149.333 208.146 281.5 220.843C413.667 233.539 545.833 309.719 678 328.764C810.167 347.809 942.333 309.719 1074.5 297.023C1206.67 284.326 1338.83 297.023 1404.92 303.371L1471 309.719V5.00002H1404.92C1338.83 5.00002 1206.67 5.00002 1074.5 5.00002C942.333 5.00002 810.167 5.00002 678 5.00002C545.833 5.00002 413.667 5.00002 281.5 5.00002C149.333 5.00002 17.1667 5.00002 -48.9167 5.00002H-115V309.719Z" fill="#F1DEFF"/>
</g>
<defs>
<filter id="filter0_d_1131_326" x="-120" y="0" width="1596" height="339" filterUnits="userSpaceOnUse" color-interpolation-filters="sRGB">
<feFlood flood-opacity="0" result="BackgroundImageFix"/>
<feColorMatrix in="SourceAlpha" type="matrix" values="0 0 0 0 0 0 0 0 0 0 0 0 0 0 0 0 0 0 127 0" result="hardAlpha"/>
<feOffset/>
<feGaussianBlur stdDeviation="2.5"/>
<feComposite in2="hardAlpha" operator="out"/>
<feColorMatrix type="matrix" values="0 0 0 0 0.215686 0 0 0 0 0 0 0 0 0 0.423529 0 0 0 0.6 0"/>
<feBlend mode="normal" in2="BackgroundImageFix" result="effect1_dropShadow_1131_326"/>
<feBlend mode="normal" in="SourceGraphic" in2="effect1_dropShadow_1131_326" result="shape"/>
</filter>
</defs>
</svg>
