<svg width="1440" height="339" viewBox="0 0 1440 339" fill="none" xmlns="http://www.w3.org/2000/svg">
<g filter="url(#filter0_d_1131_326)">
<path fill-rule="evenodd" clip-rule="evenodd" d="M-70 309.719L-3.91666 284.326C62.1667 258.933 194.333 208.146 326.5 220.843C458.667 233.539 590.833 309.719 723 328.764C855.167 347.809 987.333 309.719 1119.5 297.023C1251.67 284.326 1383.83 297.023 1449.92 303.371L1516 309.719V5.00003H1449.92C1383.83 5.00003 1251.67 5.00003 1119.5 5.00003C987.333 5.00003 855.167 5.00003 723 5.00003C590.833 5.00003 458.667 5.00003 326.5 5.00003C194.333 5.00003 62.1667 5.00003 -3.91666 5.00003H-70V309.719Z" fill="#C77DFF" fill-opacity="0.25" shape-rendering="crispEdges"/>
</g>
<defs>
<filter id="filter0_d_1131_326" x="-75" y="0" width="1596" height="339" filterUnits="userSpaceOnUse" color-interpolation-filters="sRGB">
<feFlood flood-opacity="0" result="BackgroundImageFix"/>
<feColorMatrix in="SourceAlpha" type="matrix" values="0 0 0 0 0 0 0 0 0 0 0 0 0 0 0 0 0 0 127 0" result="hardAlpha"/>
<feOffset/>
<feGaussianBlur stdDeviation="2.5"/>
<feComposite in2="hardAlpha" operator="out"/>
<feColorMatrix type="matrix" values="0 0 0 0 0.215686 0 0 0 0 0 0 0 0 0 0.423529 0 0 0 0.6 0"/>
<feBlend mode="normal" in2="BackgroundImageFix" result="effect1_dropShadow_1131_326"/>
<feBlend mode="normal" in="SourceGraphic" in2="effect1_dropShadow_1131_326" result="shape"/>
</filter>
</defs>
</svg>
