<svg width="70" height="70" viewBox="0 0 70 70" fill="none" xmlns="http://www.w3.org/2000/svg">
<circle cx="35" cy="35" r="33.5" fill="white" stroke="#37006C" stroke-width="3"/>
<path d="M27.9688 56.2625C25.5687 55.4375 23.3937 54.3125 21.4437 52.8875C19.4937 51.4625 17.891 49.7938 16.6355 47.8813C15.38 45.9688 14.7515 43.925 14.75 41.75V37.25C14.75 36.8 14.9563 36.4625 15.3688 36.2375C15.7813 36.0125 16.175 36.05 16.55 36.35L21.6687 40.175C22.1937 40.5875 22.484 41.141 22.5395 41.8355C22.595 42.53 22.3798 43.1202 21.8938 43.6062L20.2625 45.2375C21.35 47.15 23.075 48.8 25.4375 50.1875C27.8 51.575 30.2375 52.4562 32.75 52.8312V32.75H28.25C27.6125 32.75 27.0785 32.534 26.648 32.102C26.2175 31.67 26.0015 31.136 26 30.5C25.9985 29.864 26.2145 29.33 26.648 28.898C27.0815 28.466 27.6155 28.25 28.25 28.25H32.75V25.6062C31.4375 25.1187 30.3597 24.3028 29.5167 23.1582C28.6737 22.0137 28.2515 20.711 28.25 19.25C28.25 17.375 28.9063 15.7812 30.2188 14.4688C31.5312 13.1563 33.125 12.5 35 12.5C36.875 12.5 38.4688 13.1563 39.7812 14.4688C41.0937 15.7812 41.75 17.375 41.75 19.25C41.75 20.7125 41.3285 22.016 40.4855 23.1605C39.6425 24.305 38.564 25.1202 37.25 25.6062V28.25H41.75C42.3875 28.25 42.9223 28.466 43.3543 28.898C43.7863 29.33 44.0015 29.864 44 30.5C43.9985 31.136 43.7825 31.6708 43.352 32.1043C42.9215 32.5378 42.3875 32.753 41.75 32.75H37.25V52.8312C39.7625 52.4562 42.2 51.575 44.5625 50.1875C46.925 48.8 48.65 47.15 49.7375 45.2375L48.1063 43.6062C47.6188 43.1187 47.4028 42.5285 47.4583 41.8355C47.5138 41.1425 47.8047 40.589 48.3312 40.175L53.45 36.35C53.825 36.05 54.2188 36.0125 54.6313 36.2375C55.0438 36.4625 55.25 36.8 55.25 37.25V41.75C55.25 43.925 54.6215 45.9688 53.3645 47.8813C52.1075 49.7938 50.5047 51.4625 48.5562 52.8875C46.6077 54.3125 44.4328 55.4375 42.0312 56.2625C39.6297 57.0875 37.286 57.5 35 57.5C32.714 57.5 30.3703 57.0875 27.9688 56.2625ZM35 21.5C35.6375 21.5 36.1723 21.2847 36.6043 20.8542C37.0363 20.4237 37.2515 19.889 37.25 19.25C37.2485 18.611 37.0325 18.077 36.602 17.648C36.1715 17.219 35.6375 17.003 35 17C34.3625 16.997 33.8285 17.213 33.398 17.648C32.9675 18.083 32.7515 18.617 32.75 19.25C32.7485 19.883 32.9645 20.4177 33.398 20.8542C33.8315 21.2907 34.3655 21.506 35 21.5Z" fill="#591799"/>
</svg>
